PathFileType	4	(X/Y/Z)	Patient4_TMGait_0pt2_03_right_18.trc.trc
DataRate	CameraRate	NumFrames	NumMarkers	Units	OrigDataRate	OrigDataStartFrame	OrigNumFrames
45.307443365696	45.307443365696	4	33	mm	45.307443365696	124	       141
Frame#	Time	Sacral			L.Shoulder			Chest			R.Shoulder			Neck			R.ASIS			L.ASIS			R.Thigh.Superior			R.Thigh.Lateral			R.Thigh.Inferior			R.Patella			L.Thigh.Superior			L.Thigh.Lateral			L.Thigh.Inferior			L.Patella			L.Shank.Superior			L.Shank.Lateral			L.Shank.Inferior			R.Shank.Superior			R.Shank.Lateral			R.Shank.Inferior			R.Heel			R.Midfoot.Superior			R.Midfoot.Lateral			R.Toe			L.Heel			L.Midfoot.Lateral			L.Midfoot.Superior			L.Toe			L.Elbow			L.Wrist			R.Elbow			R.Wrist			
		X1	Y1	Z1	X2	Y2	Z2	X3	Y3	Z3	X4	Y4	Z4	X5	Y5	Z5	X6	Y6	Z6	X7	Y7	Z7	X8	Y8	Z8	X9	Y9	Z9	X10	Y10	Z10	X11	Y11	Z11	X12	Y12	Z12	X13	Y13	Z13	X14	Y14	Z14	X15	Y15	Z15	X16	Y16	Z16	X17	Y17	Z17	X18	Y18	Z18	X19	Y19	Z19	X20	Y20	Z20	X21	Y21	Z21	X22	Y22	Z22	X23	Y23	Z23	X24	Y24	Z24	X25	Y25	Z25	X26	Y26	Z26	X27	Y27	Z27	X28	Y28	Z28	X29	Y29	Z29	X30	Y30	Z30	X31	Y31	Z31	X32	Y32	Z32	X33	Y33	Z33	

124	41.334785714286	762.243843230380	1003.058455321212	397.204866222618	1000.531048699622	1431.864319630425	271.233946821599	1047.065689028909	1358.424864602027	452.191029495944	922.716305178555	1439.743004754825	594.086749841058	939.829362650350	1491.270679899319	417.322719013498	963.259742781954	939.207429721924	560.168267836414	1003.276869918891	958.190148664844	288.913070757113	1028.831337450358	747.022119689370	541.530435228304	959.279868072862	634.624591203493	607.320473833764	1047.668903969835	586.116082396680	534.882041075849	1065.930497231273	505.263468685658	550.259629202971	1023.296506098367	734.326487981436	319.704557128888	924.344015615486	613.225942752947	246.367556029660	1000.372219777755	540.434513170476	323.460501446276	991.762971840703	469.874648153987	332.276533433079	953.378764413387	400.417910028516	322.674536586086	851.659917271801	299.114987376660	265.168289448018	877.749230766456	184.024341733274	341.916235637362	1047.796003704690	416.724342345201	565.504958463844	989.646710021424	312.027388267470	639.671531845339	1048.388952116845	217.332459366798	589.646615827188	936.552900230923	42.199985984918	584.469200746807	1108.827500343896	102.276938371926	603.298731640690	1028.293093944871	36.357324451577	648.405291753172	1231.892736619933	56.286768925039	616.198424952674	729.998385049071	39.037309356445	379.623959762577	805.129170452204	35.177055274575	300.268524578842	889.377895849921	95.096577564540	329.260583968700	1017.470763010548	41.057589286158	301.996139452637	1186.560568610468	1194.108057624803	102.652206357477	1433.390074326945	1256.247950506674	151.715424378010	721.485325244267	1155.185186596038	659.851825162650	685.749850268242	893.084546062390	636.362164137272	
125	41.356857142857	763.788521999180	1002.595826990015	402.259470103610	1001.184184733600	1431.247963589853	276.296488180885	1048.065020003180	1358.072230305488	457.320858021477	923.761459984253	1439.339352943956	599.303047334292	940.769468156525	1490.837996302883	422.420049777239	964.823472246670	938.221850670734	564.913209584843	1004.774977925858	957.980640789998	293.762768772404	1030.302009581952	745.671480755563	544.840271198129	959.894256600622	633.175347339426	609.395748920841	1048.314179141552	585.194185898122	536.792066792455	1065.166661343940	503.959285352120	551.407545668577	1023.426724114249	733.383624209783	323.714543593383	923.248571491879	613.455562741705	249.678566237411	998.290215955603	539.645049107869	326.473243022227	989.104289171632	469.138979211275	334.922876635554	950.281284703299	400.072185352784	324.814709014491	847.889581790896	299.628164315912	266.733618412363	873.639615832795	183.816021883853	342.633020269313	1047.022841113872	414.902035883151	566.553146958872	988.311338379769	310.382306012208	640.219735473615	1045.756786954304	215.573537739083	589.298729512638	932.193083103246	41.999186400051	583.788176222489	1104.520943105118	101.029866963675	602.170701568542	1023.776796981447	36.271138451815	647.983493844705	1227.416292953846	54.608364561755	615.463422799008	725.532058295328	38.807566565162	379.657557908621	800.684013952913	35.062564398963	300.337812532686	884.907504375765	95.045462482773	329.383086459359	1013.052915160864	41.040218627437	301.979471380719	1186.749711425314	1192.298837941746	107.954580918465	1433.243111025884	1256.292982405330	156.642314563221	724.527815015821	1153.340060325128	666.767097874139	692.740653070131	890.657834390822	644.392994155146	
126	41.378928571429	765.383898311354	1002.474390044624	407.681602556703	1001.928834699726	1430.877739516556	281.478512333210	1049.269386877443	1357.962247441835	462.540908335935	925.091437680165	1439.178377011820	604.691831606612	941.897359223484	1490.664663970175	427.679880724645	966.616084332142	937.642547970151	569.969772477463	1006.244650024938	957.933281986964	298.842485194079	1032.239374363466	745.066563176369	548.199877845249	961.430345457743	632.310694322650	611.712214339116	1049.786639660748	584.902194865732	538.800699709356	1065.344766315632	503.001799678657	552.764771923553	1023.179191677141	732.489424865360	327.911722943527	921.513100816244	613.928944747876	253.182031556862	995.559439488396	538.984194402861	329.554664630016	985.779395482109	468.598226182016	337.613873175867	946.639352286897	399.976904278610	326.989455623109	843.662328924110	300.281478249005	268.394046798087	869.297830227404	183.706590735488	343.350743701782	1046.815581251838	413.437846071875	567.749441053761	987.235420726010	309.260109362978	640.985568277856	1042.977645879844	214.132779590775	589.077308821007	927.164200381951	42.102318673885	583.105432815437	1099.605471343619	100.081290105957	601.317315897982	1018.531290789694	36.404077078808	647.674974188247	1222.322507326040	53.147951909417	615.126367196555	721.037851827305	38.527241999063	379.710787629075	796.229765912371	34.922531129068	300.432832281971	880.405163201880	94.979775480371	329.519477966529	1008.643490647823	41.005848902328	301.953625564757	1186.394395774539	1189.913928664454	113.333177684236	1433.114052379436	1254.307938215527	161.383624717723	727.969096741283	1151.737253120528	674.381211350975	700.335393566382	888.507986671475	653.773432939982	
127	41.401000000000	766.990071128542	1002.665629308619	413.480746249018	1002.754671270500	1430.733771614101	286.746351142237	1050.668443723788	1358.057533562193	467.804562551771	926.715915545131	1439.230824426714	610.214911474569	943.215979681865	1490.727477389120	433.062349194599	968.634321032713	937.450671277414	575.298987586640	1007.614463398756	958.022743889304	304.102897901195	1034.486716956162	745.055958311651	551.682559010309	963.616736225998	631.932777284620	614.364938754475	1051.773957548232	585.055200218921	541.006181383897	1066.175014235370	502.314339830996	554.390942795902	1022.537667201396	731.671043795180	332.240605842597	919.173952608520	614.630881898837	256.841988358824	992.301369697131	538.463542953432	332.630025470602	981.937132123921	468.237878024517	340.266389405738	942.571758743019	400.116746104549	329.148668558001	839.047592791799	301.092734246417	270.136278181707	864.776799129153	183.714045064629	344.051839431440	1046.983970656822	412.295879728233	569.131582622911	986.398504442338	308.536224604953	642.028971213889	1040.177984037809	212.976566252588	589.040174045570	921.855943464712	42.348306991335	582.537621975695	1094.439270495905	99.403971367072	600.751391272745	1013.001742751081	36.636927271725	647.514135487276	1217.011649906121	51.971122256185	615.088875485517	716.518124167264	38.265370757685	379.782536570600	791.766188221618	34.793766758326	300.552454903933	875.887772120443	94.913652960359	329.661174013494	1004.238826197651	40.941223712023	301.916749200930	1185.491517928768	1186.967984314905	118.829270866952	1432.979536239543	1250.273167928640	165.967678588432	731.761094277842	1150.419019034681	682.599466658460	708.491480091002	886.697756661134	664.296972468362	
